# xmcd
#
# Track frame offsets:
# 150
# 9820
# 28340
# 49030
# 70515
# 81950
# 100105
# 117313
# 126153
# 144965
# 164545
# 188585
#
# Disc length: 2722 seconds
#
# Revision: 0
# Processed by: cddbd v1.5.2PL0 Copyright (c) Steve Scherf et al.
# Submitted via: Axialis_AX_CDPlayer 2.6
#
DISCID=940aa00c
DTITLE=Various Artist - Living Country Blues USA Volume 8 - Lonesome Home B
DTITLE=lues
DYEAR=1900
DGENRE=
TTITLE0=Jazz Boogie - Guitar Slim
TTITLE1=Fly Right Baby - Guitar Frank
TTITLE2=Lookout Blues - Guitar Slim
TTITLE3=I'm Feelin' Lonesome - Guitar Slim
TTITLE4=Chimney Hill Breakdown - Guitar Frank
TTITLE5=Railroad Bill - Guitar Frank
TTITLE6=Jelly Roll Baker - Guitar Frank
TTITLE7=Freight Train - Guitar Frank
TTITLE8=Lonesome Home Blues - Guitar Slim
TTITLE9=Diggin' My Patatoes - Guitar Frank
TTITLE10=Bad Luck Blues - Guitar Slim
TTITLE11=Got To Find Me A Woman - Guitar Slim
EXTD=
EXTT0=
EXTT1=
EXTT2=
EXTT3=
EXTT4=
EXTT5=
EXTT6=
EXTT7=
EXTT8=
EXTT9=
EXTT10=
EXTT11=
PLAYORDER=
